<svg width="208" height="249" viewBox="0 0 208 249" fill="none" xmlns="http://www.w3.org/2000/svg">
<path d="M149 12.9172H159.651V25.1183C159.651 26.2229 158.755 27.1183 157.651 27.1183H151C149.895 27.1183 149 26.2229 149 25.1183V12.9172Z" fill="black"/>
<circle cx="154.325" cy="12.3254" r="5.32544" fill="black"/>
<rect x="155.485" y="19.1883" width="8.28401" height="4.73372" rx="2" transform="rotate(-34 155.485 19.1883)" fill="black"/>
<path d="M146.52 12.9172H135.869V25.1183C135.869 26.2229 136.765 27.1183 137.869 27.1183H144.52C145.625 27.1183 146.52 26.2229 146.52 25.1183V12.9172Z" fill="black"/>
<circle r="5.32544" transform="matrix(-1 0 0 1 141.195 12.3254)" fill="black"/>
<rect width="8.28401" height="4.73372" rx="2" transform="matrix(-0.829038 -0.559193 -0.559193 0.829038 140.035 19.1883)" fill="black"/>
<path d="M104 14H113V24C113 25.1046 112.105 26 111 26H106C104.895 26 104 25.1046 104 24V14Z" fill="#828282"/>
<circle cx="108.5" cy="13.5" r="4.5" fill="#828282"/>
<rect x="109.48" y="19.2991" width="7" height="4" rx="2" transform="rotate(-34 109.48 19.2991)" fill="#828282"/>
<path d="M101.52 14H92.52V24C92.52 25.1046 93.4155 26 94.52 26H99.52C100.625 26 101.52 25.1046 101.52 24V14Z" fill="#828282"/>
<circle r="4.5" transform="matrix(-1 0 0 1 97.02 13.5)" fill="#828282"/>
<rect width="7" height="4" rx="2" transform="matrix(-0.829038 -0.559193 -0.559193 0.829038 96.04 19.2991)" fill="#828282"/>
<circle cx="29.5" cy="7.5" r="4.5" fill="#828282"/>
<path fill-rule="evenodd" clip-rule="evenodd" d="M42.9909 25H16.009C16.2721 17.7758 22.2115 12 29.4999 12C36.7884 12 42.7278 17.7758 42.9909 25Z" fill="black"/>
<line x1="17.5" y1="37.5" x2="17.5" y2="25.5" stroke="black" stroke-width="3" stroke-linecap="round"/>
<line x1="41.5" y1="37.5" x2="41.5" y2="25.5" stroke="black" stroke-width="3" stroke-linecap="round"/>
<line x1="20.5" y1="24.5" x2="38.5" y2="24.5" stroke="#828282" stroke-width="5" stroke-linecap="round"/>
<circle cx="66" cy="16" r="6.5" stroke="#FFCC15" stroke-width="5"/>
<line x1="59.5" y1="42.5" x2="59.5" y2="16.5" stroke="#FFCC15" stroke-width="5" stroke-linecap="round"/>
<line x1="72.5" y1="32.5" x2="72.5" y2="17.5" stroke="#FFCC15" stroke-width="5" stroke-linecap="round"/>
<path fill-rule="evenodd" clip-rule="evenodd" d="M30 67C32.7614 67 35 64.7614 35 62H40H52C54.2091 62 56 63.7909 56 66C56 68.2091 54.2091 70 52 70H42V101C42 102.105 41.1046 103 40 103H20C18.8954 103 18 102.105 18 101V70H8C5.79086 70 4 68.2091 4 66C4 63.7909 5.79086 62 8 62H20H25C25 64.7614 27.2386 67 30 67Z" fill="#FF8D7E"/>
<path fill-rule="evenodd" clip-rule="evenodd" d="M96 62C96 64.7614 93.7614 67 91 67C88.2386 67 86 64.7614 86 62H81H69C66.7909 62 65 63.7909 65 66C65 68.2091 66.7909 70 69 70H79V101C79 102.105 79.8954 103 81 103H82C82 104.105 82.8954 105 84 105H98C99.1046 105 100 104.105 100 103H101C102.105 103 103 102.105 103 101V70H113C115.209 70 117 68.2091 117 66C117 63.7909 115.209 62 113 62H101H96Z" fill="#828282"/>
<path fill-rule="evenodd" clip-rule="evenodd" d="M177 55V62H178H196C199.314 62 202 64.6863 202 68C202 71.3137 199.314 74 196 74H181C181.628 74.8357 182 75.8744 182 77C182 78.6356 181.215 80.0878 180 81C181.215 81.9122 182 83.3644 182 85C182 86.6356 181.215 88.0878 180 89C181.215 89.9122 182 91.3644 182 93C182 94.6356 181.215 96.0878 180 97C181.215 97.9122 182 99.3644 182 101C182 102.636 181.214 104.088 180 105V106C180 107.105 179.105 108 178 108H175C175 109.105 174.105 110 173 110H153C151.895 110 151 109.105 151 108H148C146.895 108 146 107.105 146 106V105C144.786 104.088 144 102.636 144 101C144 99.3644 144.785 97.9122 146 97C144.785 96.0878 144 94.6356 144 93C144 91.3644 144.785 89.9122 146 89C144.785 88.0878 144 86.6356 144 85C144 83.3644 144.785 81.9122 146 81C144.785 80.0878 144 78.6356 144 77C144 75.8744 144.372 74.8357 145 74H132C128.686 74 126 71.3137 126 68C126 64.6863 128.686 62 132 62H148H149V55V54H149.035C149.548 46.7347 155.604 41 163 41C170.396 41 176.452 46.7347 176.965 54H177V55Z" fill="#000572"/>
<path d="M14.5046 155.171L17.595 143.968C17.8343 143.101 18.6232 142.5 19.523 142.5H41.0266C41.9028 142.5 42.677 143.07 42.9367 143.907L46.3995 155.065C46.7299 156.13 46.1263 157.259 45.0576 157.576L34.6409 160.662C33.9378 160.87 33.1771 160.677 32.6586 160.159L32.0858 159.586C31.7107 159.211 31.202 159 30.6716 159H28.8284C28.298 159 27.7893 159.211 27.4142 159.586L26.874 160.126C26.3384 160.662 25.546 160.849 24.8274 160.609L15.8001 157.6C14.791 157.264 14.2217 156.196 14.5046 155.171Z" fill="#FF8D7E"/>
<path fill-rule="evenodd" clip-rule="evenodd" d="M66 140C64.8954 140 64 140.895 64 142H63C61.8954 142 61 142.895 61 144V148V158V183C61 185.761 63.2386 188 66 188C68.7614 188 71 185.761 71 183L71 160H79L79 183C79 185.761 81.2386 188 84 188C86.7614 188 89 185.761 89 183L89 158.002L89 158L89 148L89 144C89 142.895 88.1046 142 87 142H86C86 140.895 85.1046 140 84 140H66Z" fill="#7CD46E"/>
<path fill-rule="evenodd" clip-rule="evenodd" d="M108 140C106.895 140 106 140.895 106 142H105C103.895 142 103 142.895 103 144V148V158V183C103 185.761 105.239 188 108 188C110.761 188 113 185.761 113 183L113 160H121L121 183C121 185.761 123.239 188 126 188C128.761 188 131 185.761 131 183L131 158.002L131 158L131 148L131 144C131 142.895 130.105 142 129 142H128C128 140.895 127.105 140 126 140H108Z" fill="#828282"/>
<path fill-rule="evenodd" clip-rule="evenodd" d="M155 124V140H156V124H155ZM151 122V140H149C147.895 140 147 140.895 147 142C145.895 142 145 142.895 145 144V147.992L145 148V184C145 187.314 147.686 190 151 190C154.314 190 157 187.314 157 184L157 160H165L165 184C165 187.314 167.686 190 171 190C174.314 190 177 187.314 177 184L177 158.005L177 158V144C177 142.895 176.105 142 175 142C175 140.895 174.105 140 173 140H171V122C171 120.895 170.105 120 169 120H164C162.895 120 162 120.895 162 122V140H160V122C160 120.895 159.105 120 158 120H153C151.895 120 151 120.895 151 122ZM167 140H166V124H167V140Z" fill="black"/>
<line x1="22" y1="215" x2="22" y2="225" stroke="#FF8D7E" stroke-width="6" stroke-linecap="round"/>
<line x1="24" y1="225" x2="28" y2="225" stroke="#FF8D7E" stroke-width="6" stroke-linecap="round"/>
<line x1="36" y1="215" x2="36" y2="225" stroke="#FF8D7E" stroke-width="6" stroke-linecap="round"/>
<line x1="38" y1="225" x2="42" y2="225" stroke="#FF8D7E" stroke-width="6" stroke-linecap="round"/>
<line x1="65" y1="214" x2="65" y2="224" stroke="#828282" stroke-width="8" stroke-linecap="round"/>
<line x1="67" y1="224" x2="71" y2="224" stroke="#828282" stroke-width="8" stroke-linecap="round"/>
<line x1="81" y1="214" x2="81" y2="224" stroke="#828282" stroke-width="8" stroke-linecap="round"/>
<line x1="83" y1="224" x2="87" y2="224" stroke="#828282" stroke-width="8" stroke-linecap="round"/>
<path fill-rule="evenodd" clip-rule="evenodd" d="M110 204C113.314 204 116 206.686 116 210V216H118H120C122.209 216 124 217.791 124 220V222C124 225.314 121.314 228 118 228C116.463 228 115.062 227.422 114 226.472C112.938 227.422 111.537 228 110 228C106.686 228 104 225.314 104 222V210C104 206.686 106.686 204 110 204Z" fill="black"/>
<path fill-rule="evenodd" clip-rule="evenodd" d="M132 204C135.314 204 138 206.686 138 210V216H140H142C144.209 216 146 217.791 146 220V222C146 225.314 143.314 228 140 228C138.463 228 137.062 227.422 136 226.472C134.938 227.422 133.537 228 132 228C128.686 228 126 225.314 126 222V210C126 206.686 128.686 204 132 204Z" fill="black"/>
</svg>
