<svg width="225" height="338" viewBox="0 0 225 338" fill="none" xmlns="http://www.w3.org/2000/svg">
<path d="M15 313.536V302.766C15 301.403 16.3327 300.44 17.6266 300.867L20.2372 301.728C21.4667 302.133 22.2973 303.282 22.2973 304.577V309.206C22.2973 311.606 23.8574 313.728 26.1486 314.444L27.867 314.981C29.136 315.378 30 316.553 30 317.883C30 319.826 28.2024 321.27 26.3051 320.851L19.707 319.395C16.9577 318.788 15 316.352 15 313.536Z" fill="#FF8D7E"/>
<path d="M31 313.536V302.766C31 301.403 32.3327 300.44 33.6266 300.867L36.2372 301.728C37.4667 302.133 38.2973 303.282 38.2973 304.577V309.206C38.2973 311.606 39.8574 313.728 42.1486 314.444L43.867 314.981C45.136 315.378 46 316.553 46 317.883C46 319.826 44.2024 321.27 42.3051 320.851L35.707 319.395C32.9577 318.788 31 316.352 31 313.536Z" fill="#FF8D7E"/>
<path d="M63 317.69V300.86C63 299.471 64.3816 298.505 65.6865 298.982L69.7865 300.48C70.9697 300.912 71.7568 302.038 71.7568 303.298V311.328C71.7568 313.885 73.3774 316.161 75.7939 316.998L78.2895 317.862C79.9119 318.423 81 319.951 81 321.668C81 324.28 78.5524 326.202 76.0151 325.581L67.5753 323.518C64.8894 322.862 63 320.455 63 317.69Z" fill="#828282"/>
<path d="M82 317.69V300.86C82 299.471 83.3816 298.505 84.6865 298.982L88.7865 300.48C89.9697 300.912 90.7568 302.038 90.7568 303.298V311.328C90.7568 313.885 92.3774 316.161 94.7939 316.998L97.2895 317.862C98.9119 318.423 100 319.951 100 321.668C100 324.28 97.5524 326.202 95.0151 325.581L86.5753 323.518C83.8894 322.862 82 320.455 82 317.69Z" fill="#828282"/>
<path d="M117 320.549V296.914C117 295.51 118.409 294.543 119.719 295.048L128.579 298.463C130.895 299.355 132.422 301.58 132.422 304.061V308.675C132.422 310.865 133.615 312.881 135.535 313.935L136.769 314.612C138.61 315.623 139.98 317.316 140.583 319.327L140.663 319.592C140.886 320.338 141 321.113 141 321.891V326.026C141 327.085 140.58 328.1 139.831 328.848C138.632 330.047 136.808 330.358 135.28 329.623L132.374 328.227C131.623 327.866 130.956 327.352 130.414 326.719L129.25 325.359C128.995 325.06 128.678 324.821 128.321 324.659L126.122 323.657C125.369 323.314 124.513 323.865 124.513 324.692C124.513 325.527 123.643 326.078 122.888 325.719L119.146 323.943C117.835 323.321 117 322 117 320.549Z" fill="black"/>
<path d="M143 320.549V296.914C143 295.51 144.409 294.543 145.719 295.048L154.579 298.463C156.895 299.355 158.422 301.58 158.422 304.061V308.675C158.422 310.865 159.615 312.881 161.535 313.935L162.769 314.612C164.61 315.623 165.98 317.316 166.583 319.327L166.663 319.592C166.886 320.338 167 321.113 167 321.891V326.026C167 327.085 166.58 328.1 165.831 328.848C164.632 330.047 162.808 330.358 161.28 329.623L158.374 328.227C157.623 327.866 156.956 327.352 156.414 326.719L155.25 325.359C154.995 325.06 154.678 324.821 154.321 324.659L152.122 323.657C151.369 323.314 150.513 323.865 150.513 324.692C150.513 325.527 149.643 326.078 148.888 325.719L145.146 323.943C143.835 323.321 143 322 143 320.549Z" fill="black"/>
<path d="M11.0046 248.171L14.095 236.968C14.3343 236.101 15.1232 235.5 16.023 235.5H37.5266C38.4028 235.5 39.177 236.07 39.4367 236.907L42.8995 248.065C43.2299 249.13 42.6263 250.259 41.5576 250.576L31.1409 253.662C30.4378 253.87 29.6771 253.677 29.1586 253.159L28.5858 252.586C28.2107 252.211 27.702 252 27.1716 252H25.3284C24.798 252 24.2893 252.211 23.9142 252.586L23.374 253.126C22.8384 253.662 22.046 253.849 21.3274 253.609L12.3001 250.6C11.291 250.264 10.7217 249.196 11.0046 248.171Z" fill="#FF8D7E"/>
<path d="M62.2849 224.257L56.7747 269.257C56.6287 270.449 57.5589 271.5 58.7598 271.5H65.3604C66.3138 271.5 67.1346 270.827 67.3216 269.892L72.1064 245.968C72.5321 243.839 75.5683 243.819 76.0231 245.941L81.1612 269.919C81.3588 270.841 82.1738 271.5 83.1168 271.5H88.763C89.9559 271.5 90.8835 270.462 90.7505 269.277L85.6994 224.277C85.5859 223.265 84.7302 222.5 83.7119 222.5H64.27C63.2595 222.5 62.4077 223.254 62.2849 224.257Z" fill="#7CD46E"/>
<path d="M112.218 222.754L106.278 270.754C106.13 271.947 107.061 273 108.263 273H115.625C116.576 273 117.396 272.329 117.585 271.396L122.875 245.222C123.304 243.099 126.332 243.078 126.79 245.195L132.47 271.423C132.669 272.343 133.483 273 134.425 273H140.76C141.954 273 142.882 271.961 142.748 270.775L137.303 222.775C137.188 221.764 136.333 221 135.315 221H114.203C113.193 221 112.342 221.752 112.218 222.754Z" fill="#828282"/>
<path d="M161.724 222.735L155.303 270.735C155.143 271.934 156.075 273 157.285 273H165.564C166.504 273 167.317 272.345 167.518 271.427L173.403 244.491C173.858 242.41 176.819 242.388 177.304 244.462L183.624 271.456C183.836 272.36 184.642 273 185.571 273H192.74C193.941 273 194.871 271.949 194.725 270.757L188.839 222.757C188.716 221.754 187.864 221 186.853 221H163.707C162.705 221 161.857 221.742 161.724 222.735Z" fill="black"/>
<circle cx="161" cy="272" r="3.5" stroke="black"/>
<circle cx="189" cy="272" r="3.5" stroke="black"/>
<path d="M179 214C179 219.422 178.064 224.283 176.59 227.751C175.852 229.487 174.999 230.828 174.103 231.719C173.211 232.607 172.332 233 171.5 233C170.668 233 169.789 232.607 168.897 231.719C168.001 230.828 167.148 229.487 166.41 227.751C164.936 224.283 164 219.422 164 214C164 208.578 164.936 203.717 166.41 200.249C167.148 198.513 168.001 197.172 168.897 196.281C169.789 195.393 170.668 195 171.5 195C172.332 195 173.211 195.393 174.103 196.281C174.999 197.172 175.852 198.513 176.59 200.249C178.064 203.717 179 208.578 179 214Z" stroke="black" stroke-width="2"/>
<path d="M185 214C185 219.422 184.064 224.283 182.59 227.751C181.852 229.487 180.999 230.828 180.103 231.719C179.211 232.607 178.332 233 177.5 233C176.668 233 175.789 232.607 174.897 231.719C174.001 230.828 173.148 229.487 172.41 227.751C170.936 224.283 170 219.422 170 214C170 208.578 170.936 203.717 172.41 200.249C173.148 198.513 174.001 197.172 174.897 196.281C175.789 195.393 176.668 195 177.5 195C178.332 195 179.211 195.393 180.103 196.281C180.999 197.172 181.852 198.513 182.59 200.249C184.064 203.717 185 208.578 185 214Z" stroke="black" stroke-width="2"/>
<rect x="108" y="267" width="8" height="8" rx="2" fill="#828282"/>
<rect x="134" y="267" width="8" height="8" rx="2" fill="#828282"/>
<path d="M41 180H18.5C17.3954 180 16.5 179.105 16.5 178V152.97C16.5 151.879 15 151.577 14.5778 152.584L10.8569 161.457C10.3985 162.55 9.09538 163.007 8.0548 162.439L6.10255 161.374C5.19481 160.879 4.81414 159.774 5.22454 158.825L11.4416 144.448C12.1286 142.859 13.3124 141.536 14.8153 140.677L17.6554 139.054C18.8642 138.363 20.2323 138 21.6245 138H36.5C37.8131 138 39.1061 138.323 40.2647 138.941L43.7075 140.777C45.1975 141.572 46.3979 142.818 47.1366 144.336L54.1345 158.721C54.614 159.707 54.2109 160.895 53.2305 161.385L50.9661 162.517C49.9115 163.044 48.6321 162.55 48.2065 161.45L44.9326 152.992C44.5328 151.96 43 152.246 43 153.353V178C43 179.105 42.1046 180 41 180Z" fill="#FF8D7E"/>
<path d="M101.931 181.743H77.0693C75.9647 181.743 75.0693 180.847 75.0693 179.743V151.862C75.0693 150.77 73.5693 150.468 73.1471 151.475L68.847 161.729C68.3886 162.822 67.0855 163.279 66.0449 162.711L63.6025 161.379C62.6948 160.884 62.3141 159.779 62.7245 158.829L69.6544 142.804C70.3415 141.215 71.5253 139.892 73.0282 139.033L76.492 137.054C77.7008 136.363 79.0689 136 80.4612 136H97.0297C98.3428 136 99.6358 136.323 100.794 136.941L104.905 139.134C106.396 139.928 107.596 141.174 108.335 142.693L116.135 158.726C116.614 159.712 116.211 160.9 115.23 161.39L112.431 162.789C111.377 163.316 110.097 162.822 109.672 161.722L105.863 151.884C105.464 150.851 103.931 151.137 103.931 152.245V179.743C103.931 180.847 103.035 181.743 101.931 181.743Z" fill="#828282"/>
<path d="M128.675 145.711L127.36 138.478C127.161 137.387 127.888 136.343 128.98 136.151L152.328 132.03C152.442 132.01 152.559 132 152.675 132H182.343C182.448 132 182.552 132.008 182.655 132.024L208.795 136.152C209.972 136.338 210.726 137.504 210.413 138.654L208.441 145.883C208.186 146.818 207.296 147.436 206.33 147.348L188.181 145.698C187.01 145.592 186 146.514 186 147.69V180C186 182.209 184.209 184 182 184H156.5C154.291 184 152.5 182.209 152.5 180V147.677C152.5 146.506 151.498 145.585 150.33 145.685L130.812 147.346C129.785 147.433 128.859 146.725 128.675 145.711Z" fill="black"/>
<ellipse cx="169" cy="131" rx="13" ry="21" fill="black"/>
<path fill-rule="evenodd" clip-rule="evenodd" d="M43.9563 79C43.9852 78.5052 44 78.005 44 77.5C44 67.2827 37.9558 59 30.5 59C23.0442 59 17 67.2827 17 77.5C17 78.005 17.0148 78.5052 17.0437 79H43.9563Z" fill="#7CD46E"/>
<circle cx="30.5" cy="54.5" r="4.5" fill="#000572"/>
<path d="M76.1054 61.917L60.4269 95.5138C59.9293 96.5801 58.6232 96.9885 57.6068 96.3956L55.1377 94.9553C54.2194 94.4197 53.8807 93.2592 54.3666 92.3136L71.1681 59.6187C71.6397 58.7011 72.7319 58.2928 73.6898 58.6759L75.0358 59.2143C76.1023 59.6409 76.5911 60.8761 76.1054 61.917Z" fill="#FFCC15"/>
<path d="M61.3946 63.917L77.0731 97.5138C77.5707 98.5801 78.8768 98.9885 79.8932 98.3956L82.3623 96.9553C83.2806 96.4197 83.6193 95.2592 83.1334 94.3136L66.3319 61.6187C65.8603 60.7011 64.7681 60.2928 63.8102 60.6759L62.4642 61.2143C61.3977 61.6409 60.9089 62.8761 61.3946 63.917Z" fill="#FFCC15"/>
<path d="M63 62L63.3979 59.6506C64.4392 53.5021 73.5 54.264 73.5 60.5V60.5" stroke="#FFCC15" stroke-width="5" stroke-linecap="round" stroke-linejoin="round"/>
<path d="M109 64.9172H119.651V77.1183C119.651 78.2229 118.755 79.1183 117.651 79.1183H111C109.895 79.1183 109 78.2229 109 77.1183V64.9172Z" fill="black"/>
<circle cx="114.325" cy="64.3254" r="5.32544" fill="black"/>
<rect x="115.485" y="71.1883" width="8.28401" height="4.73372" rx="2" transform="rotate(-34 115.485 71.1883)" fill="black"/>
<path d="M106.52 64.9172H95.8691V77.1183C95.8691 78.2229 96.7646 79.1183 97.8691 79.1183H104.52C105.625 79.1183 106.52 78.2229 106.52 77.1183V64.9172Z" fill="black"/>
<circle r="5.32544" transform="matrix(-1 0 0 1 101.195 64.3254)" fill="black"/>
<rect width="8.28401" height="4.73372" rx="2" transform="matrix(-0.829038 -0.559193 -0.559193 0.829038 100.035 71.1883)" fill="black"/>
</svg>
