<svg width="225" height="304" viewBox="0 0 225 304" fill="none" xmlns="http://www.w3.org/2000/svg">
<path d="M15 279.536V268.766C15 267.403 16.3327 266.44 17.6266 266.867L20.2372 267.728C21.4667 268.133 22.2973 269.282 22.2973 270.577V275.206C22.2973 277.606 23.8574 279.728 26.1486 280.444L27.867 280.981C29.136 281.378 30 282.553 30 283.883C30 285.826 28.2024 287.27 26.3051 286.851L19.707 285.395C16.9577 284.788 15 282.352 15 279.536Z" fill="#FF8D7E"/>
<path d="M31 279.536V268.766C31 267.403 32.3327 266.44 33.6266 266.867L36.2372 267.728C37.4667 268.133 38.2973 269.282 38.2973 270.577V275.206C38.2973 277.606 39.8574 279.728 42.1486 280.444L43.867 280.981C45.136 281.378 46 282.553 46 283.883C46 285.826 44.2024 287.27 42.3051 286.851L35.707 285.395C32.9577 284.788 31 282.352 31 279.536Z" fill="#FF8D7E"/>
<path d="M63 283.69V266.86C63 265.471 64.3816 264.505 65.6865 264.982L69.7865 266.48C70.9697 266.912 71.7568 268.038 71.7568 269.298V277.328C71.7568 279.885 73.3774 282.161 75.7939 282.998L78.2895 283.862C79.9119 284.423 81 285.951 81 287.668C81 290.28 78.5524 292.202 76.0151 291.581L67.5753 289.518C64.8894 288.862 63 286.455 63 283.69Z" fill="#828282"/>
<path d="M82 283.69V266.86C82 265.471 83.3816 264.505 84.6865 264.982L88.7865 266.48C89.9697 266.912 90.7568 268.038 90.7568 269.298V277.328C90.7568 279.885 92.3774 282.161 94.7939 282.998L97.2895 283.862C98.9119 284.423 100 285.951 100 287.668C100 290.28 97.5524 292.202 95.0151 291.581L86.5753 289.518C83.8894 288.862 82 286.455 82 283.69Z" fill="#828282"/>
<path d="M117 286.549V262.914C117 261.51 118.409 260.543 119.719 261.048L128.579 264.463C130.895 265.355 132.422 267.58 132.422 270.061V274.675C132.422 276.865 133.615 278.881 135.535 279.935L136.769 280.612C138.61 281.623 139.98 283.316 140.583 285.327L140.663 285.592C140.886 286.338 141 287.113 141 287.891V292.026C141 293.085 140.58 294.1 139.831 294.848C138.632 296.047 136.808 296.358 135.28 295.623L132.374 294.227C131.623 293.866 130.956 293.352 130.414 292.719L129.25 291.359C128.995 291.06 128.678 290.821 128.321 290.659L126.122 289.657C125.369 289.314 124.513 289.865 124.513 290.692C124.513 291.527 123.643 292.078 122.888 291.719L119.146 289.943C117.835 289.321 117 288 117 286.549Z" fill="black"/>
<path d="M143 286.549V262.914C143 261.51 144.409 260.543 145.719 261.048L154.579 264.463C156.895 265.355 158.422 267.58 158.422 270.061V274.675C158.422 276.865 159.615 278.881 161.535 279.935L162.769 280.612C164.61 281.623 165.98 283.316 166.583 285.327L166.663 285.592C166.886 286.338 167 287.113 167 287.891V292.026C167 293.085 166.58 294.1 165.831 294.848C164.632 296.047 162.808 296.358 161.28 295.623L158.374 294.227C157.623 293.866 156.956 293.352 156.414 292.719L155.25 291.359C154.995 291.06 154.678 290.821 154.321 290.659L152.122 289.657C151.369 289.314 150.513 289.865 150.513 290.692C150.513 291.527 149.643 292.078 148.888 291.719L145.146 289.943C143.835 289.321 143 288 143 286.549Z" fill="black"/>
<path d="M11.0046 214.171L14.095 202.968C14.3343 202.101 15.1232 201.5 16.023 201.5H37.5266C38.4028 201.5 39.177 202.07 39.4367 202.907L42.8995 214.065C43.2299 215.13 42.6263 216.259 41.5576 216.576L31.1409 219.662C30.4378 219.87 29.6771 219.677 29.1586 219.159L28.5858 218.586C28.2107 218.211 27.702 218 27.1716 218H25.3284C24.798 218 24.2893 218.211 23.9142 218.586L23.374 219.126C22.8384 219.662 22.046 219.849 21.3274 219.609L12.3001 216.6C11.291 216.264 10.7217 215.196 11.0046 214.171Z" fill="#FF8D7E"/>
<path d="M62.2849 190.257L56.7747 235.257C56.6287 236.449 57.5589 237.5 58.7598 237.5H65.3604C66.3138 237.5 67.1346 236.827 67.3216 235.892L72.1064 211.968C72.5321 209.839 75.5683 209.819 76.0231 211.941L81.1612 235.919C81.3588 236.841 82.1738 237.5 83.1168 237.5H88.763C89.9559 237.5 90.8835 236.462 90.7505 235.277L85.6994 190.277C85.5859 189.265 84.7302 188.5 83.7119 188.5H64.27C63.2595 188.5 62.4077 189.254 62.2849 190.257Z" fill="#7CD46E"/>
<path d="M112.218 188.754L106.278 236.754C106.13 237.947 107.061 239 108.263 239H115.625C116.576 239 117.396 238.329 117.585 237.396L122.875 211.222C123.304 209.099 126.332 209.078 126.79 211.195L132.47 237.423C132.669 238.343 133.483 239 134.425 239H140.76C141.954 239 142.882 237.961 142.748 236.775L137.303 188.775C137.188 187.764 136.333 187 135.315 187H114.203C113.193 187 112.342 187.752 112.218 188.754Z" fill="#828282"/>
<path d="M161.724 188.735L155.303 236.735C155.143 237.934 156.075 239 157.285 239H165.564C166.504 239 167.317 238.345 167.518 237.427L173.403 210.491C173.858 208.41 176.819 208.388 177.304 210.462L183.624 237.456C183.836 238.36 184.642 239 185.571 239H192.74C193.941 239 194.871 237.949 194.725 236.757L188.839 188.757C188.716 187.754 187.864 187 186.853 187H163.707C162.705 187 161.857 187.742 161.724 188.735Z" fill="black"/>
<circle cx="161" cy="238" r="3.5" stroke="black"/>
<circle cx="189" cy="238" r="3.5" stroke="black"/>
<path d="M179 180C179 185.422 178.064 190.283 176.59 193.751C175.852 195.487 174.999 196.828 174.103 197.719C173.211 198.607 172.332 199 171.5 199C170.668 199 169.789 198.607 168.897 197.719C168.001 196.828 167.148 195.487 166.41 193.751C164.936 190.283 164 185.422 164 180C164 174.578 164.936 169.717 166.41 166.249C167.148 164.513 168.001 163.172 168.897 162.281C169.789 161.393 170.668 161 171.5 161C172.332 161 173.211 161.393 174.103 162.281C174.999 163.172 175.852 164.513 176.59 166.249C178.064 169.717 179 174.578 179 180Z" stroke="black" stroke-width="2"/>
<path d="M185 180C185 185.422 184.064 190.283 182.59 193.751C181.852 195.487 180.999 196.828 180.103 197.719C179.211 198.607 178.332 199 177.5 199C176.668 199 175.789 198.607 174.897 197.719C174.001 196.828 173.148 195.487 172.41 193.751C170.936 190.283 170 185.422 170 180C170 174.578 170.936 169.717 172.41 166.249C173.148 164.513 174.001 163.172 174.897 162.281C175.789 161.393 176.668 161 177.5 161C178.332 161 179.211 161.393 180.103 162.281C180.999 163.172 181.852 164.513 182.59 166.249C184.064 169.717 185 174.578 185 180Z" stroke="black" stroke-width="2"/>
<rect x="108" y="233" width="8" height="8" rx="2" fill="#828282"/>
<rect x="134" y="233" width="8" height="8" rx="2" fill="#828282"/>
<path d="M41 146H18.5C17.3954 146 16.5 145.105 16.5 144V118.97C16.5 117.879 15 117.577 14.5778 118.584L10.8569 127.457C10.3985 128.55 9.09538 129.007 8.0548 128.439L6.10255 127.374C5.19481 126.879 4.81414 125.774 5.22454 124.825L11.4416 110.448C12.1286 108.859 13.3124 107.536 14.8153 106.677L17.6554 105.054C18.8642 104.363 20.2323 104 21.6245 104H36.5C37.8131 104 39.1061 104.323 40.2647 104.941L43.7075 106.777C45.1975 107.572 46.3979 108.818 47.1366 110.336L54.1345 124.721C54.614 125.707 54.2109 126.895 53.2305 127.385L50.9661 128.517C49.9115 129.044 48.6321 128.55 48.2065 127.45L44.9326 118.992C44.5328 117.96 43 118.246 43 119.353V144C43 145.105 42.1046 146 41 146Z" fill="#FF8D7E"/>
<path d="M101.931 147.743H77.0693C75.9647 147.743 75.0693 146.847 75.0693 145.743V117.862C75.0693 116.77 73.5693 116.468 73.1471 117.475L68.847 127.729C68.3886 128.822 67.0855 129.279 66.0449 128.711L63.6025 127.379C62.6948 126.884 62.3141 125.779 62.7245 124.829L69.6544 108.804C70.3415 107.215 71.5253 105.892 73.0282 105.033L76.492 103.054C77.7008 102.363 79.0689 102 80.4612 102H97.0297C98.3428 102 99.6358 102.323 100.794 102.941L104.905 105.134C106.396 105.928 107.596 107.174 108.335 108.693L116.135 124.726C116.614 125.712 116.211 126.9 115.23 127.39L112.431 128.789C111.377 129.316 110.097 128.822 109.672 127.722L105.863 117.884C105.464 116.851 103.931 117.137 103.931 118.245V145.743C103.931 146.847 103.035 147.743 101.931 147.743Z" fill="#828282"/>
<path d="M128.675 111.711L127.36 104.478C127.161 103.387 127.888 102.343 128.98 102.151L152.328 98.0304C152.442 98.0102 152.559 98 152.675 98H182.343C182.448 98 182.552 98.0082 182.655 98.0245L208.795 102.152C209.972 102.338 210.726 103.504 210.413 104.654L208.441 111.883C208.186 112.818 207.296 113.436 206.33 113.348L188.181 111.698C187.01 111.592 186 112.514 186 113.69V146C186 148.209 184.209 150 182 150H156.5C154.291 150 152.5 148.209 152.5 146V113.677C152.5 112.506 151.498 111.585 150.33 111.685L130.812 113.346C129.785 113.433 128.859 112.725 128.675 111.711Z" fill="black"/>
<ellipse cx="169" cy="97" rx="13" ry="21" fill="black"/>
<path fill-rule="evenodd" clip-rule="evenodd" d="M43.9563 45C43.9852 44.5052 44 44.005 44 43.5C44 33.2827 37.9558 25 30.5 25C23.0442 25 17 33.2827 17 43.5C17 44.005 17.0148 44.5052 17.0437 45H43.9563Z" fill="#7CD46E"/>
<circle cx="30.5" cy="20.5" r="4.5" fill="#000572"/>
<path d="M109 30.9172H119.651V43.1183C119.651 44.2229 118.755 45.1183 117.651 45.1183H111C109.895 45.1183 109 44.2229 109 43.1183V30.9172Z" fill="black"/>
<circle cx="114.325" cy="30.3254" r="5.32544" fill="black"/>
<rect x="115.485" y="37.1883" width="8.28401" height="4.73372" rx="2" transform="rotate(-34 115.485 37.1883)" fill="black"/>
<path d="M106.52 30.9172H95.8691V43.1183C95.8691 44.2229 96.7646 45.1183 97.8691 45.1183H104.52C105.625 45.1183 106.52 44.2229 106.52 43.1183V30.9172Z" fill="black"/>
<circle r="5.32544" transform="matrix(-1 0 0 1 101.195 30.3254)" fill="black"/>
<rect width="8.28401" height="4.73372" rx="2" transform="matrix(-0.829038 -0.559193 -0.559193 0.829038 100.035 37.1883)" fill="black"/>
<path d="M76.1054 27.9164L60.4269 61.5132C59.9293 62.5795 58.6232 62.9879 57.6068 62.395L55.1377 60.9547C54.2194 60.4191 53.8807 59.2586 54.3666 58.313L71.1681 25.6181C71.6397 24.7005 72.7319 24.2921 73.6898 24.6753L75.0358 25.2137C76.1023 25.6403 76.5911 26.8755 76.1054 27.9164Z" fill="#FFCC15"/>
<path d="M61.3946 29.9164L77.0731 63.5132C77.5707 64.5795 78.8768 64.9879 79.8932 64.395L82.3623 62.9547C83.2806 62.4191 83.6193 61.2586 83.1334 60.313L66.3319 27.6181C65.8603 26.7005 64.7681 26.2921 63.8102 26.6753L62.4642 27.2137C61.3977 27.6403 60.9089 28.8755 61.3946 29.9164Z" fill="#FFCC15"/>
<path fill-rule="evenodd" clip-rule="evenodd" d="M65.8628 26.0674C66.3923 22.9407 71 23.3282 71 26.4994H76C76 17.1985 62.486 16.0623 60.933 25.2325L60.5351 27.5819C60.3046 28.9432 61.2212 30.2337 62.5826 30.4643C63.9439 30.6948 65.2344 29.7781 65.4649 28.4168L65.8628 26.0674Z" fill="#FFCC15"/>
</svg>
