<svg width="225" height="304" viewBox="0 0 225 304" fill="none" xmlns="http://www.w3.org/2000/svg">
<path d="M15 279.536V268.766C15 267.403 16.3327 266.44 17.6266 266.867L20.2372 267.728C21.4667 268.133 22.2973 269.282 22.2973 270.577V275.206C22.2973 277.606 23.8574 279.728 26.1486 280.444L27.867 280.981C29.136 281.378 30 282.553 30 283.883C30 285.826 28.2024 287.27 26.3051 286.851L19.707 285.395C16.9577 284.788 15 282.352 15 279.536Z" fill="#FF8D7E"/>
<path d="M31 279.536V268.766C31 267.403 32.3327 266.44 33.6266 266.867L36.2372 267.728C37.4667 268.133 38.2973 269.282 38.2973 270.577V275.206C38.2973 277.606 39.8574 279.728 42.1486 280.444L43.867 280.981C45.136 281.378 46 282.553 46 283.883C46 285.826 44.2024 287.27 42.3051 286.851L35.707 285.395C32.9577 284.788 31 282.352 31 279.536Z" fill="#FF8D7E"/>
<path d="M11.0046 214.171L14.095 202.968C14.3343 202.101 15.1232 201.5 16.023 201.5H37.5266C38.4028 201.5 39.177 202.07 39.4367 202.907L42.8995 214.065C43.2299 215.13 42.6263 216.259 41.5576 216.576L31.1409 219.662C30.4378 219.87 29.6771 219.677 29.1586 219.159L28.5858 218.586C28.2107 218.211 27.702 218 27.1716 218H25.3284C24.798 218 24.2893 218.211 23.9142 218.586L23.374 219.126C22.8384 219.662 22.046 219.849 21.3274 219.609L12.3001 216.6C11.291 216.264 10.7217 215.196 11.0046 214.171Z" fill="#FF8D7E"/>
<path d="M62.2849 190.257L56.7747 235.257C56.6287 236.449 57.5589 237.5 58.7598 237.5H65.3604C66.3138 237.5 67.1346 236.827 67.3216 235.892L72.1064 211.968C72.5321 209.839 75.5683 209.819 76.0231 211.941L81.1612 235.919C81.3588 236.841 82.1738 237.5 83.1168 237.5H88.763C89.9559 237.5 90.8835 236.462 90.7505 235.277L85.6994 190.277C85.5859 189.265 84.7302 188.5 83.7119 188.5H64.27C63.2595 188.5 62.4077 189.254 62.2849 190.257Z" fill="#7CD46E"/>
<path d="M41 146H18.5C17.3954 146 16.5 145.105 16.5 144V118.97C16.5 117.879 15 117.577 14.5778 118.584L10.8569 127.457C10.3985 128.55 9.09538 129.007 8.0548 128.439L6.10255 127.374C5.19481 126.879 4.81414 125.774 5.22454 124.825L11.4416 110.448C12.1286 108.859 13.3124 107.536 14.8153 106.677L17.6554 105.054C18.8642 104.363 20.2323 104 21.6245 104H36.5C37.8131 104 39.1061 104.323 40.2647 104.941L43.7075 106.777C45.1975 107.572 46.3979 108.818 47.1366 110.336L54.1345 124.721C54.614 125.707 54.2109 126.895 53.2305 127.385L50.9661 128.517C49.9115 129.044 48.6321 128.55 48.2065 127.45L44.9326 118.992C44.5328 117.96 43 118.246 43 119.353V144C43 145.105 42.1046 146 41 146Z" fill="#FF8D7E"/>
<path d="M101.931 147.743H77.0693C75.9647 147.743 75.0693 146.847 75.0693 145.743V117.862C75.0693 116.77 73.5693 116.468 73.1471 117.475L68.847 127.729C68.3886 128.822 67.0855 129.279 66.0449 128.711L63.6025 127.379C62.6948 126.884 62.3141 125.779 62.7245 124.829L69.6544 108.804C70.3415 107.215 71.5253 105.892 73.0282 105.033L76.492 103.054C77.7008 102.363 79.0689 102 80.4612 102H97.0297C98.3428 102 99.6358 102.323 100.794 102.941L104.905 105.134C106.396 105.928 107.596 107.174 108.335 108.693L116.135 124.726C116.614 125.712 116.211 126.9 115.23 127.39L112.431 128.789C111.377 129.316 110.097 128.822 109.672 127.722L105.863 117.884C105.464 116.851 103.931 117.137 103.931 118.245V145.743C103.931 146.847 103.035 147.743 101.931 147.743Z" fill="#000572"/>
<path d="M44 44.5C49.5 50 47 55 31 55C26.5 55 17 50.9706 17 46C17 41.0294 23.268 37 31 37C38.732 37 39.5 38 44 44.5Z" fill="#69AE5E"/>
<path fill-rule="evenodd" clip-rule="evenodd" d="M43.9563 45C43.9852 44.5052 44 44.005 44 43.5C44 33.2827 37.9558 30 30.5 30C23.0442 30 17 33.2827 17 43.5C17 44.005 17.0148 44.5052 17.0437 45H43.9563Z" fill="#69AE5E"/>
<path d="M62.5 280.353V275.118C62.5 274.375 63.2823 273.891 63.9472 274.224L65.2889 274.894C65.4277 274.964 65.5808 275 65.7361 275H69.9648C70.2992 275 70.6114 274.833 70.7969 274.555L72.1095 272.586C72.5261 271.961 73.5 272.256 73.5 273.007C73.5 273.307 73.6766 273.579 73.9507 273.7L86.8303 279.425C86.9425 279.474 87.0445 279.545 87.1313 279.631L89.3331 281.833C89.4429 281.943 89.5256 282.077 89.5747 282.224L90.4487 284.846C90.4827 284.948 90.5 285.055 90.5 285.162V287.42C90.5 287.779 90.3077 288.11 89.9961 288.288L87.2306 289.868C87.0795 289.955 86.9085 290 86.7344 290H82.7146C82.5732 290 82.4333 289.97 82.3043 289.912L63.0896 281.265C62.7308 281.104 62.5 280.747 62.5 280.353Z" fill="white" stroke="black"/>
<line x1="73.2785" y1="277.35" x2="77.3501" y2="275.721" stroke="black" stroke-linecap="round"/>
<line x1="76.2785" y1="278.35" x2="80.3501" y2="276.721" stroke="black" stroke-linecap="round"/>
<line x1="79.2785" y1="279.35" x2="83.3501" y2="277.721" stroke="black" stroke-linecap="round"/>
<path d="M83.5 280.353V275.118C83.5 274.375 84.2823 273.891 84.9472 274.224L86.2889 274.894C86.4277 274.964 86.5808 275 86.7361 275H90.9648C91.2992 275 91.6114 274.833 91.7969 274.555L93.1095 272.586C93.5261 271.961 94.5 272.256 94.5 273.007C94.5 273.307 94.6766 273.579 94.9507 273.7L107.83 279.425C107.942 279.474 108.045 279.545 108.131 279.631L110.333 281.833C110.443 281.943 110.526 282.077 110.575 282.224L111.449 284.846C111.483 284.948 111.5 285.055 111.5 285.162V287.42C111.5 287.779 111.308 288.11 110.996 288.288L108.231 289.868C108.079 289.955 107.908 290 107.734 290H103.715C103.573 290 103.433 289.97 103.304 289.912L84.0896 281.265C83.7308 281.104 83.5 280.747 83.5 280.353Z" fill="white" stroke="black"/>
<line x1="94.2785" y1="277.35" x2="98.3501" y2="275.721" stroke="black" stroke-linecap="round"/>
<line x1="97.2785" y1="278.35" x2="101.35" y2="276.721" stroke="black" stroke-linecap="round"/>
<line x1="100.279" y1="279.35" x2="104.35" y2="277.721" stroke="black" stroke-linecap="round"/>
<path d="M86.2481 274.832L85 274L86.2071 272.793C86.3946 272.605 86.649 272.5 86.9142 272.5H89H90.8769C90.9587 272.5 91.0401 272.51 91.1194 272.53L93 273L91.8 274.6C91.6111 274.852 91.3148 275 91 275H86.8028C86.6054 275 86.4123 274.942 86.2481 274.832Z" fill="black" stroke="black"/>
<path d="M62.5 280.353V275.118C62.5 274.375 63.2823 273.891 63.9472 274.224L65.2889 274.894C65.4277 274.964 65.5808 275 65.7361 275H69.9648C70.2992 275 70.6114 274.833 70.7969 274.555L72.1095 272.586C72.5261 271.961 73.5 272.256 73.5 273.007C73.5 273.307 73.6766 273.579 73.9507 273.7L86.8303 279.425C86.9425 279.474 87.0445 279.545 87.1313 279.631L89.3331 281.833C89.4429 281.943 89.5256 282.077 89.5747 282.224L90.4487 284.846C90.4827 284.948 90.5 285.055 90.5 285.162V287.42C90.5 287.779 90.3077 288.11 89.9961 288.288L87.2306 289.868C87.0795 289.955 86.9085 290 86.7344 290H82.7146C82.5732 290 82.4333 289.97 82.3043 289.912L63.0896 281.265C62.7308 281.104 62.5 280.747 62.5 280.353Z" fill="white" stroke="black"/>
<line x1="73.2785" y1="277.35" x2="77.3501" y2="275.721" stroke="black" stroke-linecap="round"/>
<line x1="76.2785" y1="278.35" x2="80.3501" y2="276.721" stroke="black" stroke-linecap="round"/>
<line x1="79.2785" y1="279.35" x2="83.3501" y2="277.721" stroke="black" stroke-linecap="round"/>
<path d="M65.2481 274.832L64 274L65.2071 272.793C65.3946 272.605 65.649 272.5 65.9142 272.5H68H69.8769C69.9587 272.5 70.0401 272.51 70.1194 272.53L72 273L70.8 274.6C70.6111 274.852 70.3148 275 70 275H65.8028C65.6054 275 65.4123 274.942 65.2481 274.832Z" fill="black" stroke="black"/>
</svg>
