<svg width="208" height="249" viewBox="0 0 208 249" fill="none" xmlns="http://www.w3.org/2000/svg">
<g clip-path="url(#clip0_9_0)">
<rect width="208" height="249" fill="white"/>
<path fill-rule="evenodd" clip-rule="evenodd" d="M43.7689 17H59C60.1046 17 61 17.8954 61 19C61 20.1046 60.1046 21 59 21H3C1.89543 21 1 20.1046 1 19C1 17.8954 1.89543 17 3 17H17.231C18.4034 10.7386 23.8983 6 30.4999 6C37.1016 6 42.5965 10.7386 43.7689 17Z" fill="#FFDE6A"/>
<path fill-rule="evenodd" clip-rule="evenodd" d="M30 67C32.7614 67 35 64.7614 35 62H40H45C47.2091 62 49 63.7909 49 66C49 68.2091 47.2091 70 45 70H42V101C42 102.105 41.1046 103 40 103H20C18.8954 103 18 102.105 18 101V70H15C12.7909 70 11 68.2091 11 66C11 63.7909 12.7909 62 15 62H20H25C25 64.7614 27.2386 67 30 67Z" fill="#7CD46E"/>
<path d="M14.5046 155.171L17.595 143.968C17.8343 143.101 18.6232 142.5 19.523 142.5H41.0266C41.9028 142.5 42.677 143.07 42.9367 143.907L46.3995 155.065C46.7299 156.13 46.1263 157.259 45.0576 157.576L34.6409 160.662C33.9378 160.87 33.1771 160.677 32.6586 160.159L32.0858 159.586C31.7107 159.211 31.202 159 30.6716 159H28.8284C28.298 159 27.7893 159.211 27.4142 159.586L26.874 160.126C26.3384 160.662 25.546 160.849 24.8274 160.609L15.8001 157.6C14.791 157.264 14.2217 156.196 14.5046 155.171Z" fill="#FF8D7E"/>
<path fill-rule="evenodd" clip-rule="evenodd" d="M66 140C64.8954 140 64 140.895 64 142H63C61.8954 142 61 142.895 61 144V147.994L61 148V166C61 169.314 63.6863 172 67 172C70.3137 172 73 169.314 73 166V160H77V166C77 169.314 79.6863 172 83 172C86.3137 172 89 169.314 89 166V158.002V158L89 148L89 144C89 142.895 88.1046 142 87 142H86C86 140.895 85.1046 140 84 140H66Z" fill="#7CD46E"/>
<line x1="20.5" y1="226.5" x2="39.5" y2="226.5" stroke="black" stroke-width="3" stroke-linecap="round"/>
<path fill-rule="evenodd" clip-rule="evenodd" d="M34.8293 227C34.9398 226.687 35 226.351 35 226C35 224.343 33.6569 223 32 223C30.3431 223 29 224.343 29 226C29 226.351 29.0602 226.687 29.1707 227H27.1C27.0344 226.677 27 226.342 27 226C27 223.239 29.2386 221 32 221C34.7614 221 37 223.239 37 226C37 226.342 36.9656 226.677 36.9 227H34.8293Z" fill="black"/>
<line x1="44.5" y1="226.5" x2="63.5" y2="226.5" stroke="black" stroke-width="3" stroke-linecap="round"/>
<path fill-rule="evenodd" clip-rule="evenodd" d="M58.8293 227C58.9398 226.687 59 226.351 59 226C59 224.343 57.6569 223 56 223C54.3431 223 53 224.343 53 226C53 226.351 53.0602 226.687 53.1707 227H51.1C51.0344 226.677 51 226.342 51 226C51 223.239 53.2386 221 56 221C58.7614 221 61 223.239 61 226C61 226.342 60.9656 226.677 60.9 227H58.8293Z" fill="black"/>
</g>
<defs>
<clipPath id="clip0_9_0">
<rect width="208" height="249" fill="white"/>
</clipPath>
</defs>
</svg>
