<svg width="225" height="304" viewBox="0 0 225 304" fill="none" xmlns="http://www.w3.org/2000/svg">
<path d="M11.0046 214.171L14.095 202.968C14.3343 202.101 15.1232 201.5 16.023 201.5H37.5266C38.4028 201.5 39.177 202.07 39.4367 202.907L42.8995 214.065C43.2299 215.13 42.6263 216.259 41.5576 216.576L31.1409 219.662C30.4378 219.87 29.6771 219.677 29.1586 219.159L28.5858 218.586C28.2107 218.211 27.702 218 27.1716 218H25.3284C24.798 218 24.2893 218.211 23.9142 218.586L23.374 219.126C22.8384 219.662 22.046 219.849 21.3274 219.609L12.3001 216.6C11.291 216.264 10.7217 215.196 11.0046 214.171Z" fill="#FF8D7E"/>
<path d="M67.0046 216.444L71.5495 199.968C71.7888 199.101 72.5778 198.5 73.4775 198.5H103.89C104.766 198.5 105.541 199.07 105.8 199.907L110.9 216.338C111.23 217.402 110.626 218.532 109.558 218.848L94.2319 223.389C93.5287 223.598 92.768 223.404 92.2495 222.886L90.9494 221.586C90.5744 221.211 90.0656 221 89.5352 221H86.4193C85.8889 221 85.3802 221.211 85.0051 221.586L83.7377 222.853C83.202 223.389 82.4097 223.576 81.691 223.336L68.3001 218.873C67.291 218.536 66.7217 217.469 67.0046 216.444Z" fill="#7CD46E"/>
<path fill-rule="evenodd" clip-rule="evenodd" d="M43.9563 45C43.9852 44.5052 44 44.005 44 43.5C44 33.2827 37.9558 30 30.5 30C23.0442 30 17 33.2827 17 43.5C17 44.005 17.0148 44.5052 17.0437 45H43.9563Z" fill="#FFCC15"/>
<ellipse cx="31.5" cy="47" rx="30.5" ry="5" fill="#FFCC15"/>
<path d="M39.5 144H20.5C19.3954 144 18.5 143.105 18.5 142V117.632C18.5 116.93 18.1314 116.279 17.529 115.917L13.4665 113.48C12.2713 112.763 12.1577 111.074 13.2461 110.203L17.6768 106.659C18.192 106.246 18.8773 106.115 19.5085 106.307L29.4177 109.323C29.7973 109.438 30.2027 109.438 30.5823 109.323L40.4915 106.307C41.1227 106.115 41.808 106.246 42.3232 106.659L46.7539 110.203C47.8423 111.074 47.7287 112.763 46.5335 113.48L42.471 115.917C41.8686 116.279 41.5 116.93 41.5 117.632V142C41.5 143.105 40.6046 144 39.5 144Z" fill="#FF8D7E"/>
<path d="M17.6833 276H13.9749C12.0076 276 11.2224 278.542 12.847 279.652L26.4695 288.955C27.4666 289.636 28.6459 290 29.8533 290H30.5917C33.5599 290 34.7255 286.15 32.2558 284.504L21.0115 277.008C20.0259 276.351 18.8679 276 17.6833 276Z" fill="black" stroke="black"/>
<path d="M30 281C30 283.761 27.7614 286 25 286C24.6986 286 24.356 286.031 24.0915 286.055C23.9903 286.065 23.9005 286.073 23.8289 286.078C23.4934 286.101 23.353 286.08 23.2884 286.056C23.2708 286.05 23.2661 286.045 23.2604 286.04C23.2523 286.032 23.2199 285.996 23.1795 285.901C23.0908 285.69 23 285.274 23 284.5C23 284.22 22.9982 283.941 22.9964 283.664C22.9869 282.218 22.9778 280.837 23.232 279.731C23.379 279.092 23.5914 278.666 23.8465 278.407C24.072 278.177 24.4049 278 25 278C26.6312 278 27.915 278.177 28.7679 278.637C29.1719 278.855 29.4631 279.129 29.6607 279.474C29.8605 279.823 30 280.308 30 281Z" stroke="black" stroke-width="2"/>
<path d="M37.6833 276H33.9749C32.0076 276 31.2224 278.542 32.847 279.652L46.4695 288.955C47.4666 289.636 48.6459 290 49.8533 290H50.5917C53.5599 290 54.7255 286.15 52.2558 284.504L41.0115 277.008C40.0259 276.351 38.8679 276 37.6833 276Z" fill="black" stroke="black"/>
<path d="M50 281C50 283.761 47.7614 286 45 286C44.6986 286 44.356 286.031 44.0915 286.055C43.9903 286.065 43.9005 286.073 43.8289 286.078C43.4934 286.101 43.353 286.08 43.2884 286.056C43.2708 286.05 43.2661 286.045 43.2604 286.04C43.2523 286.032 43.2199 285.996 43.1795 285.901C43.0908 285.69 43 285.274 43 284.5C43 284.22 42.9982 283.941 42.9964 283.664C42.9869 282.218 42.9778 280.837 43.232 279.731C43.379 279.092 43.5914 278.666 43.8465 278.407C44.072 278.177 44.4049 278 45 278C46.6312 278 47.915 278.177 48.7679 278.637C49.1719 278.855 49.4631 279.129 49.6607 279.474C49.8605 279.823 50 280.308 50 281Z" stroke="black" stroke-width="2"/>
</svg>
