<svg width="208" height="249" viewBox="0 0 208 249" fill="none" xmlns="http://www.w3.org/2000/svg">
<path fill-rule="evenodd" clip-rule="evenodd" d="M42.9909 19H16.009C16.2721 11.7758 22.2115 6 29.4999 6C36.7884 6 42.7278 11.7758 42.9909 19Z" fill="#69AE5E"/>
<path d="M43 19C47.5 20.5 48.4558 26 41 26C33.5442 26 16 22.866 16 19C16 15.134 22.0442 12 29.5 12C36.9558 12 43 15.134 43 19Z" fill="#69AE5E"/>
<path fill-rule="evenodd" clip-rule="evenodd" d="M30 67C32.7614 67 35 64.7614 35 62H40H45C47.2091 62 49 63.7909 49 66C49 68.2091 47.2091 70 45 70H42V101C42 102.105 41.1046 103 40 103H20C18.8954 103 18 102.105 18 101V70H15C12.7909 70 11 68.2091 11 66C11 63.7909 12.7909 62 15 62H20H25C25 64.7614 27.2386 67 30 67Z" fill="#FF8D7E"/>
<path fill-rule="evenodd" clip-rule="evenodd" d="M96 62C96 64.7614 93.7614 67 91 67C88.2386 67 86 64.7614 86 62H81H69C66.7909 62 65 63.7909 65 66C65 68.2091 66.7909 70 69 70H79V101C79 102.105 79.8954 103 81 103H82C82 104.105 82.8954 105 84 105H98C99.1046 105 100 104.105 100 103H101C102.105 103 103 102.105 103 101V70H113C115.209 70 117 68.2091 117 66C117 63.7909 115.209 62 113 62H101H96Z" fill="#7CD46E"/>
<path fill-rule="evenodd" clip-rule="evenodd" d="M156 60C154.895 60 154 60.8954 154 62L148 62H132C128.686 62 126 64.6863 126 68C126 71.3137 128.686 74 132 74H146V106C146 107.105 146.895 108 148 108H151C151 109.105 151.895 110 153 110H173C174.105 110 175 109.105 175 108H178C179.105 108 180 107.105 180 106V74H196C199.314 74 202 71.3137 202 68C202 64.6863 199.314 62 196 62H178H172C172 60.8954 171.105 60 170 60H156Z" fill="#000572"/>
<path d="M14.5046 155.171L17.595 143.968C17.8343 143.101 18.6232 142.5 19.523 142.5H41.0266C41.9028 142.5 42.677 143.07 42.9367 143.907L46.3995 155.065C46.7299 156.13 46.1263 157.259 45.0576 157.576L34.6409 160.662C33.9378 160.87 33.1771 160.677 32.6586 160.159L32.0858 159.586C31.7107 159.211 31.202 159 30.6716 159H28.8284C28.298 159 27.7893 159.211 27.4142 159.586L26.874 160.126C26.3384 160.662 25.546 160.849 24.8274 160.609L15.8001 157.6C14.791 157.264 14.2217 156.196 14.5046 155.171Z" fill="#FF8D7E"/>
<path fill-rule="evenodd" clip-rule="evenodd" d="M66 140C64.8954 140 64 140.895 64 142H63C61.8954 142 61 142.895 61 144V148V158V183C61 185.761 63.2386 188 66 188C68.7614 188 71 185.761 71 183L71 160H79L79 183C79 185.761 81.2386 188 84 188C86.7614 188 89 185.761 89 183L89 158.002L89 158L89 148L89 144C89 142.895 88.1046 142 87 142H86C86 140.895 85.1046 140 84 140H66Z" fill="#7CD46E"/>
<line x1="22" y1="215" x2="22" y2="225" stroke="#FF8D7E" stroke-width="6" stroke-linecap="round"/>
<line x1="24" y1="225" x2="28" y2="225" stroke="#FF8D7E" stroke-width="6" stroke-linecap="round"/>
<line x1="36" y1="215" x2="36" y2="225" stroke="#FF8D7E" stroke-width="6" stroke-linecap="round"/>
<line x1="38" y1="225" x2="42" y2="225" stroke="#FF8D7E" stroke-width="6" stroke-linecap="round"/>
<path fill-rule="evenodd" clip-rule="evenodd" d="M67 208C70.3137 208 73 210.686 73 214V216H75H77C79.2091 216 81 217.791 81 220V222C81 225.314 78.3137 228 75 228C73.4633 228 72.0615 227.422 71 226.472C69.9385 227.422 68.5367 228 67 228C63.6863 228 61 225.314 61 222V214C61 210.686 63.6863 208 67 208Z" fill="#B16A00"/>
<path fill-rule="evenodd" clip-rule="evenodd" d="M89 208C92.3137 208 95 210.686 95 214V216H97H99C101.209 216 103 217.791 103 220V222C103 225.314 100.314 228 97 228C95.4633 228 94.0615 227.422 93 226.472C91.9385 227.422 90.5367 228 89 228C85.6863 228 83 225.314 83 222V214C83 210.686 85.6863 208 89 208Z" fill="#B16A00"/>
</svg>
