<svg width="208" height="249" viewBox="0 0 208 249" fill="none" xmlns="http://www.w3.org/2000/svg">
<rect width="208" height="249" fill="white"/>
<path fill-rule="evenodd" clip-rule="evenodd" d="M42.9909 19H16.009C16.2721 11.7758 22.2115 6 29.4999 6C36.7884 6 42.7278 11.7758 42.9909 19Z" fill="#69AE5E"/>
<path d="M43 19C47.5 20.5 48.4558 26 41 26C33.5442 26 16 22.866 16 19C16 15.134 22.0442 12 29.5 12C36.9558 12 43 15.134 43 19Z" fill="#69AE5E"/>
<path fill-rule="evenodd" clip-rule="evenodd" d="M30 67C32.7614 67 35 64.7614 35 62H40H45C47.2091 62 49 63.7909 49 66C49 68.2091 47.2091 70 45 70H42V101C42 102.105 41.1046 103 40 103H20C18.8954 103 18 102.105 18 101V70H15C12.7909 70 11 68.2091 11 66C11 63.7909 12.7909 62 15 62H20H25C25 64.7614 27.2386 67 30 67Z" fill="#7CD46E"/>
<path d="M14.5046 155.171L17.595 143.968C17.8343 143.101 18.6232 142.5 19.523 142.5H41.0266C41.9028 142.5 42.677 143.07 42.9367 143.907L46.3995 155.065C46.7299 156.13 46.1263 157.259 45.0576 157.576L34.6409 160.662C33.9378 160.87 33.1771 160.677 32.6586 160.159L32.0858 159.586C31.7107 159.211 31.202 159 30.6716 159H28.8284C28.298 159 27.7893 159.211 27.4142 159.586L26.874 160.126C26.3384 160.662 25.546 160.849 24.8274 160.609L15.8001 157.6C14.791 157.264 14.2217 156.196 14.5046 155.171Z" fill="#FF8D7E"/>
<path fill-rule="evenodd" clip-rule="evenodd" d="M66 140C64.8954 140 64 140.895 64 142H63C61.8954 142 61 142.895 61 144V148V158V183C61 185.761 63.2386 188 66 188C68.7614 188 71 185.761 71 183L71 160H79L79 183C79 185.761 81.2386 188 84 188C86.7614 188 89 185.761 89 183L89 158.002L89 158L89 148L89 144C89 142.895 88.1046 142 87 142H86C86 140.895 85.1046 140 84 140H66Z" fill="#7CD46E"/>
<line x1="22" y1="215" x2="22" y2="225" stroke="#FF8D7E" stroke-width="6" stroke-linecap="round"/>
<line x1="24" y1="225" x2="28" y2="225" stroke="#FF8D7E" stroke-width="6" stroke-linecap="round"/>
<line x1="36" y1="215" x2="36" y2="225" stroke="#FF8D7E" stroke-width="6" stroke-linecap="round"/>
<line x1="38" y1="225" x2="42" y2="225" stroke="#FF8D7E" stroke-width="6" stroke-linecap="round"/>
<path fill-rule="evenodd" clip-rule="evenodd" d="M63 217C61.8954 217 61 217.895 61 219V222C61 222.142 61.0147 222.28 61.0427 222.413C61.0146 222.605 61 222.801 61 223V224C61 226.209 62.7909 228 65 228H77.4C79.3882 228 81 226.388 81 224.4C81 221.418 78.5823 219 75.6 219H69C69 217.895 68.1046 217 67 217H63Z" fill="black"/>
<path fill-rule="evenodd" clip-rule="evenodd" d="M85 217C83.8954 217 83 217.895 83 219V222C83 222.142 83.0147 222.28 83.0427 222.413C83.0146 222.605 83 222.801 83 223V224C83 226.209 84.7909 228 87 228H99.4C101.388 228 103 226.388 103 224.4C103 221.418 100.582 219 97.6 219H91C91 217.895 90.1046 217 89 217H85Z" fill="black"/>
<path d="M22.925 41.1042L20.4328 33.6275C20.055 32.494 20.7489 31.2842 21.9182 31.038L28.3996 29.6735C28.943 29.5591 29.5043 29.5591 30.0477 29.6735L36.5291 31.038C37.6984 31.2842 38.3923 32.494 38.0145 33.6276L35.5222 41.1042C35.3259 41.6933 34.995 42.2286 34.5559 42.6677L32.0521 45.1716C30.49 46.7337 27.9573 46.7337 26.3952 45.1716L23.8913 42.6677C23.4522 42.2286 23.1214 41.6933 22.925 41.1042Z" fill="black" stroke="black"/>
</svg>
