<svg width="208" height="249" viewBox="0 0 208 249" fill="none" xmlns="http://www.w3.org/2000/svg">
<path fill-rule="evenodd" clip-rule="evenodd" d="M43.5964 23.5542L16.7624 26.3746C16.2689 19.1625 21.5721 12.7975 28.8206 12.0356C36.0691 11.2738 42.5797 16.3971 43.5964 23.5542Z" fill="#FF0000"/>
<line x1="17.1014" y1="26.3419" x2="42.959" y2="23.6242" stroke="#FF0000" stroke-width="5" stroke-linecap="round"/>
<path fill-rule="evenodd" clip-rule="evenodd" d="M30 67C32.7614 67 35 64.7614 35 62H40H45C47.2091 62 49 63.7909 49 66C49 68.2091 47.2091 70 45 70H42V101C42 102.105 41.1046 103 40 103H20C18.8954 103 18 102.105 18 101V70H15C12.7909 70 11 68.2091 11 66C11 63.7909 12.7909 62 15 62H20H25C25 64.7614 27.2386 67 30 67Z" fill="#FF8D7E"/>
<path fill-rule="evenodd" clip-rule="evenodd" d="M96 62C96 64.7614 93.7614 67 91 67C88.2386 67 86 64.7614 86 62H81H69C66.7909 62 65 63.7909 65 66C65 68.2091 66.7909 70 69 70H79V101C79 102.105 79.8954 103 81 103H82C82 104.105 82.8954 105 84 105H98C99.1046 105 100 104.105 100 103H101C102.105 103 103 102.105 103 101V70H113C115.209 70 117 68.2091 117 66C117 63.7909 115.209 62 113 62H101H96Z" fill="#7CD46E"/>
<path fill-rule="evenodd" clip-rule="evenodd" d="M177 55V62H178H196C199.314 62 202 64.6863 202 68C202 71.3137 199.314 74 196 74H180V106C180 107.105 179.105 108 178 108H175C175 109.105 174.105 110 173 110H153C151.895 110 151 109.105 151 108H148C146.895 108 146 107.105 146 106V74H132C128.686 74 126 71.3137 126 68C126 64.6863 128.686 62 132 62H148H149V55V54H149.035C149.548 46.7347 155.604 41 163 41C170.396 41 176.452 46.7347 176.965 54H177V55Z" fill="black"/>
<path d="M14.5046 155.171L17.595 143.968C17.8343 143.101 18.6232 142.5 19.523 142.5H41.0266C41.9028 142.5 42.677 143.07 42.9367 143.907L46.3995 155.065C46.7299 156.13 46.1263 157.259 45.0576 157.576L34.6409 160.662C33.9378 160.87 33.1771 160.677 32.6586 160.159L32.0858 159.586C31.7107 159.211 31.202 159 30.6716 159H28.8284C28.298 159 27.7893 159.211 27.4142 159.586L26.874 160.126C26.3384 160.662 25.546 160.849 24.8274 160.609L15.8001 157.6C14.791 157.264 14.2217 156.196 14.5046 155.171Z" fill="#FF8D7E"/>
<path fill-rule="evenodd" clip-rule="evenodd" d="M66 140C64.8954 140 64 140.895 64 142H63C61.8954 142 61 142.895 61 144V148V158V183C61 185.761 63.2386 188 66 188C68.7614 188 71 185.761 71 183L71 160H79L79 183C79 185.761 81.2386 188 84 188C86.7614 188 89 185.761 89 183L89 158.002L89 158L89 148L89 144C89 142.895 88.1046 142 87 142H86C86 140.895 85.1046 140 84 140H66Z" fill="#7CD46E"/>
<path fill-rule="evenodd" clip-rule="evenodd" d="M113 124V140H114V124H113ZM109 122V140H107C105.895 140 105 140.895 105 142C103.895 142 103 142.895 103 144V147.992L103 148V184C103 187.314 105.686 190 109 190C112.314 190 115 187.314 115 184L115 160H123L123 184C123 187.314 125.686 190 129 190C132.314 190 135 187.314 135 184L135 158.005L135 158V144C135 142.895 134.105 142 133 142C133 140.895 132.105 140 131 140H129V122C129 120.895 128.105 120 127 120H122C120.895 120 120 120.895 120 122V140H118V122C118 120.895 117.105 120 116 120H111C109.895 120 109 120.895 109 122ZM125 140H124V124H125V140Z" fill="black"/>
<line x1="22" y1="215" x2="22" y2="225" stroke="#FF8D7E" stroke-width="6" stroke-linecap="round"/>
<line x1="24" y1="225" x2="28" y2="225" stroke="#FF8D7E" stroke-width="6" stroke-linecap="round"/>
<line x1="36" y1="215" x2="36" y2="225" stroke="#FF8D7E" stroke-width="6" stroke-linecap="round"/>
<line x1="38" y1="225" x2="42" y2="225" stroke="#FF8D7E" stroke-width="6" stroke-linecap="round"/>
<path fill-rule="evenodd" clip-rule="evenodd" d="M73 214C73 210.686 70.3137 208 67 208C63.6863 208 61 210.686 61 214V222C61 225.314 63.6863 228 67 228C68.5367 228 69.9385 227.422 71 226.472C72.0615 227.422 73.4633 228 75 228C78.3137 228 81 225.314 81 222V220C81 217.791 79.2091 216 77 216H75H73V214ZM97 224H89V228H97V224Z" fill="#B16A00"/>
<path fill-rule="evenodd" clip-rule="evenodd" d="M95 214C95 210.686 92.3137 208 89 208C85.6863 208 83 210.686 83 214V222C83 225.314 85.6863 228 89 228C90.5367 228 91.9385 227.422 93 226.472C94.0615 227.422 95.4633 228 97 228C100.314 228 103 225.314 103 222V220C103 217.791 101.209 216 99 216H97H95V214ZM75 224H67V228H75V224Z" fill="#B16A00"/>
<path d="M68.52 12.9172H56.52V23.9172C56.52 25.0217 57.4155 25.9172 58.52 25.9172H66.52C67.6246 25.9172 68.52 25.0217 68.52 23.9172V12.9172Z" fill="#828282"/>
<rect width="7.875" height="4.5" rx="2" transform="matrix(-0.829038 -0.559193 -0.559193 0.829038 60.355 18.8786)" fill="#828282"/>
<path d="M58 17V9" stroke="#828282" stroke-width="3" stroke-linecap="round"/>
<path d="M61 16V8" stroke="#828282" stroke-width="3" stroke-linecap="round"/>
<path d="M64 16V8" stroke="#828282" stroke-width="3" stroke-linecap="round"/>
<path d="M67 17V9" stroke="#828282" stroke-width="3" stroke-linecap="round"/>
<path d="M70.3101 12.9172H82.3101V23.9172C82.3101 25.0217 81.4146 25.9172 80.3101 25.9172H72.3101C71.2055 25.9172 70.3101 25.0217 70.3101 23.9172V12.9172Z" fill="#828282"/>
<rect x="78.4751" y="18.8786" width="7.875" height="4.5" rx="2" transform="rotate(-34 78.4751 18.8786)" fill="#828282"/>
<path d="M80.8301 17V9" stroke="#828282" stroke-width="3" stroke-linecap="round"/>
<path d="M77.8301 16V8" stroke="#828282" stroke-width="3" stroke-linecap="round"/>
<path d="M74.8301 16V8" stroke="#828282" stroke-width="3" stroke-linecap="round"/>
<path d="M71.8301 17V9" stroke="#828282" stroke-width="3" stroke-linecap="round"/>
</svg>
